<?xml version="1.0" standalone="no"?>
<!DOCTYPE svg PUBLIC "-//W3C//DTD SVG 20010904//EN"
 "http://www.w3.org/TR/2001/REC-SVG-20010904/DTD/svg10.dtd">
<svg version="1.0" xmlns="http://www.w3.org/2000/svg"
 width="512.000000pt" height="512.000000pt" viewBox="0 0 512.000000 512.000000"
 preserveAspectRatio="xMidYMid meet">
<metadata>
Created by potrace 1.14, written by Peter Selinger 2001-2017
</metadata>
<g transform="translate(0.000000,512.000000) scale(0.100000,-0.100000)"
fill="#000000" stroke="none">
<path d="M2458 4731 c-47 -91 -127 -247 -178 -346 -92 -179 -201 -392 -362
-705 -47 -91 -143 -277 -213 -415 -70 -137 -158 -308 -195 -380 -37 -71 -116
-224 -175 -340 -206 -402 -430 -839 -760 -1480 -45 -88 -149 -290 -230 -450
-82 -159 -159 -310 -172 -334 -13 -24 -22 -45 -21 -47 2 -2 46 27 98 63 734
513 1367 880 1910 1108 102 42 194 81 205 86 130 56 431 153 447 143 6 -4 8
-3 5 3 -4 7 8 14 31 19 20 4 42 9 47 10 6 2 19 5 30 6 11 2 23 7 26 11 4 5 24
10 47 10 22 1 38 5 35 10 -4 6 3 8 47 12 8 0 20 3 25 6 9 5 56 18 70 20 2 0
19 5 37 10 35 10 169 39 203 44 11 1 27 5 35 8 8 3 33 8 55 11 22 2 49 8 59
12 15 6 17 4 11 -7 -7 -11 -6 -12 6 -2 18 15 52 22 239 48 63 9 126 18 140 20
14 2 52 6 85 10 33 3 74 8 90 11 40 5 113 12 205 19 41 4 95 8 120 10 40 3
123 8 345 20 33 2 85 4 115 4 l55 1 -45 21 c-86 40 -315 127 -415 158 -145 45
-377 93 -505 106 -14 1 -50 6 -80 10 l-55 8 -148 296 c-82 163 -221 440 -311
616 -89 176 -281 554 -426 840 -145 286 -305 601 -355 701 l-92 180 -85 -165z
m124 -1341 c19 -36 59 -110 88 -165 29 -55 65 -122 80 -150 15 -27 51 -95 80
-150 29 -55 70 -131 90 -170 21 -38 57 -106 80 -150 23 -44 67 -126 97 -182
l55 -103 -39 -1 c-125 -4 -305 -16 -358 -24 -16 -3 -46 -7 -65 -9 -94 -12
-138 -18 -170 -26 -19 -5 -53 -11 -75 -15 -22 -3 -58 -10 -80 -16 -22 -6 -49
-13 -61 -15 -11 -2 -83 -22 -160 -44 -76 -22 -146 -42 -154 -44 -29 -8 -155
-49 -164 -54 -7 -4 74 157 234 463 69 133 177 341 295 570 81 156 171 328 182
348 6 11 5 12 45 -63z"/>
<path d="M3595 1791 c-3 -5 -2 -12 3 -15 5 -3 9 1 9 9 0 17 -3 19 -12 6z"/>
<path d="M3444 1762 c4 -3 14 -7 22 -8 9 -1 13 0 10 4 -4 3 -14 7 -22 8 -9 1
-13 0 -10 -4z"/>
<path d="M4153 1735 c0 -8 4 -12 9 -9 5 3 6 10 3 15 -9 13 -12 11 -12 -6z"/>
<path d="M3930 1606 c0 -2 7 -7 16 -10 8 -3 12 -2 9 4 -6 10 -25 14 -25 6z"/>
<path d="M3436 1573 c-6 -14 -5 -15 5 -6 7 7 10 15 7 18 -3 3 -9 -2 -12 -12z"/>
<path d="M3515 1531 c-3 -5 -2 -12 3 -15 5 -3 9 1 9 9 0 17 -3 19 -12 6z"/>
<path d="M4160 1520 c-9 -6 -10 -10 -3 -10 6 0 15 5 18 10 8 12 4 12 -15 0z"/>
<path d="M3393 1495 c0 -8 4 -12 9 -9 5 3 6 10 3 15 -9 13 -12 11 -12 -6z"/>
<path d="M2955 1469 c-4 -6 -5 -12 -2 -15 2 -3 7 2 10 11 7 17 1 20 -8 4z"/>
<path d="M3075 1469 c-4 -6 -5 -12 -2 -15 2 -3 7 2 10 11 7 17 1 20 -8 4z"/>
<path d="M4313 1465 c0 -8 4 -12 9 -9 5 3 6 10 3 15 -9 13 -12 11 -12 -6z"/>
<path d="M4155 1440 c3 -5 8 -10 11 -10 2 0 4 5 4 10 0 6 -5 10 -11 10 -5 0
-7 -4 -4 -10z"/>
<path d="M4206 1438 c3 -5 10 -6 15 -3 13 9 11 12 -6 12 -8 0 -12 -4 -9 -9z"/>
<path d="M3396 1413 c-6 -14 -5 -15 5 -6 7 7 10 15 7 18 -3 3 -9 -2 -12 -12z"/>
<path d="M4076 1422 c-4 -4 -35 -8 -69 -9 -34 -1 -78 -4 -97 -7 -19 -4 -53 -9
-75 -12 -22 -3 -58 -10 -80 -16 -22 -6 -46 -13 -52 -15 -30 -8 -39 -10 -55
-17 -9 -4 -22 -5 -28 -1 -5 3 -10 3 -10 -2 0 -13 -118 -55 -131 -47 -8 4 -9 3
-5 -4 4 -7 -15 -21 -49 -36 -30 -14 -55 -28 -55 -30 0 -3 35 -24 78 -47 42
-23 102 -56 132 -72 271 -148 944 -562 998 -614 7 -7 17 -13 22 -13 5 0 15 -6
22 -12 18 -17 70 -53 88 -61 8 -4 69 -45 135 -92 110 -77 144 -96 118 -63 -6
7 -41 71 -78 143 -38 72 -78 144 -89 160 -12 17 -20 31 -18 33 2 1 -18 40 -43
86 -25 46 -45 88 -45 95 0 6 -4 11 -10 11 -5 0 -10 6 -10 13 0 7 -11 29 -25
50 -14 20 -23 37 -19 37 4 0 0 8 -9 18 -10 10 -14 22 -10 25 3 4 2 7 -4 7 -9
0 -21 27 -21 47 0 3 -4 9 -9 12 -5 3 -31 47 -58 96 -26 50 -52 96 -58 103 -5
6 -6 12 -1 12 5 0 4 4 -2 8 -12 8 -64 100 -64 114 0 5 5 6 12 2 7 -4 8 -3 4 5
-4 6 -11 9 -16 6 -5 -3 -18 14 -29 37 -11 24 -21 36 -21 28 0 -9 -3 -11 -8 -5
-4 6 -25 11 -47 12 -133 6 -182 10 -191 16 -6 3 -14 3 -18 -1z"/>
</g>
</svg>
